<svg xmlns="http://www.w3.org/2000/svg" width="82" height="58" viewBox="0 0 82 58" fill="none">
        <path d="M48.3908 39.083C53.3475 37.2151 57.2604 34.6726 60.1277 31.4544C62.9946 28.237 64.4283 24.7331 64.4283 20.9427C64.4283 17.1522 62.9946 13.6481 60.1265 10.4305C57.2596 7.21286 53.3473 4.67003 48.39 2.8017C43.4328 0.933663 38.041 0 32.214 0C26.3874 0 20.9956 0.934236 16.0381 2.8017C11.081 4.66989 7.16854 7.21271 4.30141 10.4305C1.43397 13.6486 0 17.1522 0 20.9429C0 24.1875 1.08457 27.243 3.25034 30.1061C5.41596 32.9687 8.39047 35.3825 12.1729 37.3455C11.8681 38.0005 11.5554 38.5997 11.235 39.1458C10.9145 39.6911 10.5335 40.2155 10.0908 40.7204C9.64845 41.2254 9.30563 41.6206 9.06137 41.9059C8.81728 42.1922 8.42076 42.5953 7.87134 43.1125C7.32209 43.6307 6.97109 43.9715 6.81883 44.1347C6.81883 44.1074 6.75776 44.1691 6.63564 44.3191C6.51335 44.4691 6.44475 44.5369 6.42968 44.5241C6.4143 44.5094 6.35323 44.5776 6.24649 44.7276C6.13975 44.8777 6.08622 44.9526 6.08622 44.9526L5.97162 45.1565C5.92643 45.2389 5.89533 45.3194 5.88027 45.4018C5.86488 45.483 5.85719 45.5723 5.85719 45.6674C5.85719 45.7625 5.87225 45.8508 5.90335 45.933C5.96441 46.287 6.13975 46.5728 6.42952 46.792C6.71914 47.0098 7.03151 47.1185 7.36744 47.1185H7.5048C9.0298 46.9277 10.3418 46.7096 11.4398 46.4639C16.1378 45.3737 20.3784 43.6277 24.161 41.2283C26.9064 41.6647 29.5909 41.8827 32.2143 41.8827C38.0414 41.8846 43.4337 40.9512 48.3908 39.083Z" fill="#108A00"/>
        <path d="M78.7508 40.596C80.9174 37.7466 81.9999 34.6867 81.9999 31.4141C81.9999 28.0597 80.8546 24.9219 78.5675 22.0044C76.2793 19.0873 73.1672 16.6599 69.2324 14.7238C69.9334 16.7688 70.2842 18.8411 70.2842 20.9413C70.2842 24.595 69.2636 28.0581 67.2184 31.3307C65.1746 34.6024 62.2459 37.4926 58.4328 40.0018C54.894 42.2923 50.8671 44.0506 46.3519 45.2781C41.838 46.5047 37.1245 47.1188 32.2129 47.1188C31.2981 47.1188 29.9556 47.0648 28.1865 46.9559C34.3179 50.5546 41.5176 52.3549 49.7843 52.3549C52.4081 52.3549 55.0924 52.1362 57.8382 51.7C61.6207 54.1004 65.8615 55.8448 70.5591 56.9362C71.6573 57.1823 72.9691 57.3999 74.4945 57.5906C74.8604 57.618 75.1966 57.5224 75.5014 57.3042C75.8064 57.0862 76.005 56.7871 76.0961 56.4057C76.0818 56.2419 76.0961 56.1521 76.1421 56.1391C76.1871 56.1262 76.1794 56.0371 76.119 55.8737C76.0587 55.7098 76.0279 55.628 76.0279 55.628L75.9138 55.424C75.8821 55.3702 75.8305 55.2947 75.7537 55.1995C75.6774 55.105 75.6167 55.0358 75.5705 54.9951C75.5257 54.9544 75.4575 54.8858 75.3654 54.7911C75.2743 54.6965 75.213 54.6346 75.1822 54.6073C75.0298 54.4435 74.6791 54.1028 74.1301 53.5845C73.5806 53.0669 73.1847 52.6647 72.9406 52.3785C72.6965 52.0921 72.3532 51.697 71.911 51.192C71.469 50.688 71.0872 50.1629 70.7668 49.6173C70.4466 49.0721 70.1339 48.4719 69.8289 47.8179C73.6117 45.8529 76.5854 43.4464 78.7508 40.596Z" fill="#88D47E"/>
        </svg>