<svg width="43" height="63" viewBox="0 0 43 63" fill="none" xmlns="http://www.w3.org/2000/svg">
<path d="M21.4912 42.9809C24.775 42.9809 27.5851 41.8118 29.9232 39.4747C32.2608 37.1376 33.4298 34.3259 33.4298 31.0424V11.9397C33.4298 8.65624 32.2617 5.84579 29.9232 3.5075C27.5851 1.16973 24.775 0 21.4912 0C18.2078 0 15.3972 1.16973 13.0591 3.5075C10.7208 5.8454 9.55182 8.65624 9.55182 11.9397V31.0424C9.55182 34.3258 10.7213 37.1376 13.0591 39.4747C15.3968 41.8118 18.2078 42.9809 21.4912 42.9809Z" fill="#108A00"/>
<path d="M42.2724 24.5878C41.8012 24.1151 41.2403 23.8787 40.5936 23.8787C39.9475 23.8787 39.3879 24.1151 38.9147 24.5878C38.4426 25.0603 38.2063 25.6199 38.2063 26.2664V31.0424C38.2063 35.6443 36.5704 39.5803 33.2994 42.8511C30.0295 46.1221 26.093 47.7576 21.491 47.7576C16.8892 47.7576 12.9531 46.1221 9.68196 42.8511C6.41125 39.5812 4.77603 35.6444 4.77603 31.0424V26.2664C4.77603 25.6199 4.53963 25.0603 4.06721 24.5878C3.59454 24.1151 3.03548 23.8787 2.38834 23.8787C1.74121 23.8787 1.18149 24.1151 0.70908 24.5878C0.236273 25.0603 0 25.6199 0 26.2664V31.0424C0 36.5396 1.83477 41.3217 5.50327 45.3882C9.17191 49.4547 13.7051 51.7865 19.1031 52.3831V57.3086H9.55167C8.90492 57.3086 8.34534 57.5452 7.8728 58.0179C7.40012 58.4902 7.16372 59.05 7.16372 59.6968C7.16372 60.3425 7.40012 60.9034 7.8728 61.3757C8.34534 61.8479 8.90492 62.085 9.55167 62.085H33.4297C34.0763 62.085 34.6367 61.8481 35.1086 61.3757C35.5818 60.9035 35.8183 60.3426 35.8183 59.6968C35.8183 59.0502 35.5818 58.4903 35.1086 58.0179C34.6368 57.5452 34.0765 57.3086 33.4297 57.3086H23.8795V52.3831C29.2765 51.7865 33.8094 49.4547 37.4784 45.3882C41.1474 41.3217 42.9827 36.5396 42.9827 31.0424V26.2664C42.9827 25.6201 42.7458 25.0609 42.2724 24.5878Z" fill="#108A00"/>
</svg>
