<svg width="52" height="52" viewBox="0 0 52 52" fill="none" xmlns="http://www.w3.org/2000/svg">
<path d="M19.7241 21.5172C30.6175 21.5172 39.4483 16.7004 39.4483 10.7586C39.4483 4.8168 30.6175 0 19.7241 0C8.8308 0 0 4.8168 0 10.7586C0 16.7004 8.8308 21.5172 19.7241 21.5172Z" fill="#108A00"/>
<path d="M19.7241 39.4485C11.1172 39.4485 3.94483 36.9381 0 32.9933V39.4485C0 45.545 8.6069 50.2071 19.7241 50.2071C21.3379 50.2071 22.9517 50.0278 24.5655 49.8485C21.8759 47.1588 20.2621 43.3933 19.7241 39.4485Z" fill="#108A00"/>
<path d="M0 18.6481V25.1032C0 31.1998 8.6069 35.8619 19.7241 35.8619C19.7241 35.8619 19.7241 35.8619 19.9034 35.8619C20.2621 31.5584 22.4138 27.6136 25.2828 24.7446C23.4897 24.9239 21.6965 25.1032 19.7241 25.1032C11.1172 25.1032 3.94483 22.5929 0 18.6481Z" fill="#108A00"/>
<path d="M39.4484 23.4895V38.7309L41.7794 36.3998C42.4966 35.6826 43.5725 35.6826 44.2897 36.3998C45.007 37.1171 45.007 38.193 44.2897 38.9102L38.9104 44.2895C38.7311 44.4688 38.5518 44.6481 38.3725 44.6481C38.1932 44.8274 37.8346 44.8274 37.6553 44.8274C37.4759 44.8274 37.1173 44.8274 36.938 44.6481C36.7587 44.4688 36.5794 44.4688 36.4001 44.2895L31.0208 38.9102C30.3035 38.193 30.3035 37.1171 31.0208 36.3998C31.738 35.6826 32.8139 35.6826 33.5311 36.3998L35.8621 38.7309V23.4895C28.869 24.3861 23.3104 30.4826 23.3104 37.655C23.3104 45.5447 29.7656 51.9998 37.6553 51.9998C45.5449 51.9998 52.0001 45.5447 52.0001 37.655C52.0001 30.3033 46.4415 24.3861 39.4484 23.4895Z" fill="#108A00"/>
</svg>
