<svg width="63" height="63" viewBox="0 0 63 63" fill="none" xmlns="http://www.w3.org/2000/svg">
<path fill-rule="evenodd" clip-rule="evenodd" d="M40.6874 28.8749C38.5128 28.8749 36.7499 27.112 36.7499 24.9374C36.7499 22.7628 38.5128 20.9999 40.6874 20.9999C42.862 20.9999 44.6249 22.7628 44.6249 24.9374C44.6249 27.112 42.862 28.8749 40.6874 28.8749ZM22.3124 28.8749C20.1378 28.8749 18.3749 27.112 18.3749 24.9374C18.3749 22.7628 20.1378 20.9999 22.3124 20.9999C24.487 20.9999 26.2499 22.7628 26.2499 24.9374C26.2499 27.112 24.487 28.8749 22.3124 28.8749ZM31.4736 5.24988C45.9899 5.24988 57.7499 17.0099 57.7499 31.4999C57.7499 45.9899 45.9899 57.7499 31.4736 57.7499C16.9836 57.7499 5.24988 45.9899 5.24988 31.4999C5.24988 17.0099 16.9836 5.24988 31.4736 5.24988ZM31.4999 52.4999C43.1024 52.4999 52.4999 43.1024 52.4999 31.4999C52.4999 19.8974 43.1024 10.4999 31.4999 10.4999C19.8974 10.4999 10.4999 19.8974 10.4999 31.4999C10.4999 43.1024 19.8974 52.4999 31.4999 52.4999ZM43.0761 36.4611C43.9949 37.0386 44.2836 38.2461 43.7061 39.1649C41.0286 43.3911 36.4874 45.9374 31.4999 45.9374C26.5124 45.9374 21.9711 43.4174 19.2936 39.1386C18.7161 38.2199 19.0049 37.0124 19.9236 36.4349C20.8424 35.8574 22.0499 36.1461 22.6274 37.0649C24.5699 40.1624 27.8774 41.9999 31.4999 41.9999C35.1224 41.9999 38.4299 40.1624 40.3724 37.0911C40.9236 36.1724 42.1574 35.8836 43.0761 36.4611Z" fill="#108A00"/>
</svg>
