<svg width="66" height="50" viewBox="0 0 66 50" fill="none" xmlns="http://www.w3.org/2000/svg">
<path d="M53.125 6.25H28.125L21.875 0H6.25C2.8125 0 0 2.8125 0 6.25V43.75C0 47.1875 2.8125 50 6.25 50H54.6875C57.3438 50 59.375 47.9688 59.375 45.3125V12.5C59.375 9.0625 56.5625 6.25 53.125 6.25Z" fill="#108A00"/>
<path d="M59.6875 15.625H17.6562C14.6875 15.625 12.0312 17.8125 11.5625 20.7812L6.25 50H55.7812C58.75 50 61.4062 47.8125 61.875 44.8438L65.7812 22.9688C66.5625 19.2188 63.5938 15.625 59.6875 15.625Z" fill="#7EEF6F"/>
</svg>
